<svg version="1.1" id="Layer_1" xmlns="http://www.w3.org/2000/svg" xmlns:xlink="http://www.w3.org/1999/xlink" x="0px" y="0px"
	 width="100%" viewBox="0 0 896 282" enable-background="new 0 0 896 282" xml:space="preserve">
<path fill="#18216d" opacity="1.000000" stroke="none" 
	d="
M183.000000,67.136398 
	C132.850479,67.137543 83.200958,67.141914 33.551441,67.136459 
	C24.490568,67.135460 22.818520,65.460495 22.804388,56.349827 
	C22.791208,47.852924 22.780134,39.355469 22.861568,30.859152 
	C22.921995,24.554970 25.443464,22.002140 31.575516,22.000498 
	C97.386070,21.982862 163.196625,21.978746 229.007187,21.992350 
	C236.416306,21.993881 238.960342,24.529158 238.993454,31.808800 
	C239.032089,40.305698 239.045151,48.802948 239.015289,57.299854 
	C238.989929,64.518890 236.367081,67.105545 228.984100,67.123184 
	C213.822815,67.159424 198.661377,67.135445 183.000000,67.136398 
z"/>
<path fill="#18216d" opacity="1.000000" stroke="none" 
	d="
M107.000000,87.989105 
	C147.480774,87.981354 187.461548,87.971611 227.442322,87.967430 
	C236.235596,87.966507 238.996063,90.731270 239.009094,99.539368 
	C239.020187,107.035751 239.013809,114.532150 239.018066,122.028542 
	C239.023285,131.200150 236.305557,133.996552 227.254562,134.000595 
	C193.604065,134.015610 159.953568,134.010941 126.303070,134.013046 
	C105.979500,134.014328 85.655922,134.022507 65.332359,134.011658 
	C55.947441,134.006638 53.057514,131.126877 53.044109,121.817459 
	C53.032597,113.821327 52.967167,105.824417 53.055172,97.829277 
	C53.126091,91.386444 56.559776,88.015045 63.021019,87.995636 
	C77.513893,87.952095 92.006989,87.986465 107.000000,87.989105 
z"/>
<path fill="#18216d" opacity="1.000000" stroke="none" 
	d="
M101.093857,177.001556 
	C101.098198,172.504822 101.029518,168.504898 101.118988,164.508514 
	C101.266907,157.901337 103.747910,155.117493 110.187096,154.261017 
	C111.500092,154.086395 112.847954,154.144730 114.179741,154.144684 
	C151.497574,154.143326 188.815399,154.141327 226.133224,154.173309 
	C227.948502,154.174866 229.792145,154.334946 231.573227,154.677612 
	C236.643845,155.653152 238.951553,158.395996 238.995560,163.641876 
	C239.072388,172.804123 239.086639,181.967987 239.005234,191.130081 
	C238.952469,197.068375 236.016998,199.977020 230.032257,199.982437 
	C190.048889,200.018600 150.065460,200.018890 110.082100,199.988907 
	C104.239044,199.984512 101.331184,197.060638 101.123436,190.993240 
	C100.969597,186.500381 101.092354,181.998077 101.093857,177.001556 
z"/>
<path fill="#18216d" opacity="1.000000" stroke="none" 
	d="
M223.958221,266.177124 
	C195.983948,266.172150 168.503036,266.188171 141.022186,266.153564 
	C132.376419,266.142670 129.988770,263.726135 129.989288,255.257050 
	C129.989792,247.096085 129.939468,238.934357 130.033340,230.774368 
	C130.112366,223.903305 133.049774,220.992294 139.738235,220.988785 
	C169.550873,220.973114 199.363525,220.969604 229.176163,220.980682 
	C236.363876,220.983353 238.987473,223.664169 239.009537,230.981934 
	C239.033646,238.976303 239.011276,246.970810 239.015305,254.965256 
	C239.019882,264.027130 236.954346,266.121124 227.949066,266.165894 
	C226.783234,266.171692 225.617416,266.174377 223.958221,266.177124 
z"/>
<path fill="#18216d" opacity="1.000000" stroke="none" 
	d="
M390.797180,40.678764 
	C392.302460,34.842937 393.709137,29.406639 395.143555,23.863098 
	C401.194061,23.863098 406.966217,23.863098 413.212524,23.863098 
	C407.926270,39.946476 402.760376,55.675770 397.585358,71.402046 
	C395.563751,77.545456 393.427307,83.653275 391.536682,89.836479 
	C390.816711,92.191200 389.924713,93.454010 387.134460,93.303253 
	C382.328033,93.043564 377.497498,93.231346 372.121918,93.231346 
	C367.949005,77.804420 363.781342,62.396816 359.613678,46.989212 
	C359.324432,46.942059 359.035187,46.894905 358.745941,46.847752 
	C354.507660,62.252609 350.269379,77.657471 345.983459,93.235336 
	C340.531158,93.235336 335.374969,93.392265 330.241974,93.116806 
	C329.067566,93.053780 327.314209,91.720894 326.939209,90.600334 
	C319.576843,68.600815 312.378937,46.546265 304.996826,24.043648 
	C311.339355,24.043648 317.358215,24.043648 323.870331,24.043648 
	C328.260651,40.423092 332.712982,57.033772 337.443787,74.683411 
	C341.761261,58.229374 345.889618,42.867386 349.750031,27.438358 
	C350.437317,24.691505 351.325714,23.631723 354.280609,23.573782 
	C367.867462,23.307358 367.898163,23.202227 371.441711,36.257317 
	C374.787933,48.585434 378.055603,60.934864 381.716003,74.613411 
	C384.916870,62.663399 387.807709,51.870846 390.797180,40.678764 
z"/>
<path fill="#060606" opacity="1.000000" stroke="none" 
	d="
M519.963257,250.945374 
	C519.962708,238.649643 519.962708,226.848938 519.962708,215.048248 
	C519.683228,214.949875 519.403809,214.851501 519.124329,214.753128 
	C516.972839,219.634399 514.811707,224.511459 512.672180,229.397995 
	C510.008850,235.480820 507.091614,241.472031 504.813873,247.696686 
	C503.487518,251.321320 501.044800,251.393341 498.183044,251.092484 
	C495.208191,250.779709 491.823486,252.532791 489.975067,247.875565 
	C485.602844,236.859253 480.603241,226.091934 475.088928,215.382233 
	C475.088928,229.396057 475.088928,243.409882 475.088928,257.757843 
	C469.646393,257.757843 464.591644,257.757843 459.260376,257.757843 
	C459.260376,234.776703 459.260376,211.731522 459.260376,188.247406 
	C465.094025,188.247406 470.732208,188.042969 476.334198,188.402527 
	C477.608582,188.484329 479.233246,190.295013 479.889130,191.689697 
	C485.045593,202.654846 490.001801,213.714127 495.030823,224.739334 
	C495.708130,226.224197 496.447266,227.680862 497.418335,229.689621 
	C503.265076,216.841736 508.945038,204.669449 514.311035,192.360321 
	C515.723206,189.120865 517.516846,187.939682 520.992310,188.165939 
	C525.622192,188.467361 530.286438,188.240372 535.307617,188.240372 
	C535.307617,211.556854 535.307617,234.597458 535.307617,257.869690 
	C530.289917,257.869690 525.374084,257.869690 519.963806,257.869690 
	C519.963806,255.669174 519.963806,253.554794 519.963257,250.945374 
z"/>
<path fill="#030303" opacity="1.000000" stroke="none" 
	d="
M545.686462,93.028572 
	C532.597534,93.047371 519.973572,93.047371 507.112122,93.047371 
	C507.112122,69.953186 507.112122,47.051151 507.112122,24.132692 
	C520.510681,24.132692 533.783020,23.863642 547.031372,24.309378 
	C550.641418,24.430836 554.487549,26.183702 557.693298,28.084892 
	C568.077332,34.243206 567.705383,48.738148 557.229248,54.698048 
	C556.383301,55.179333 555.502014,55.598557 555.251953,55.728069 
	C558.513489,58.586555 562.878113,60.908585 564.822021,64.530014 
	C566.846313,68.301140 567.546814,73.448250 567.025452,77.776802 
	C566.050171,85.872925 559.617737,89.509850 552.515137,91.825554 
	C550.481384,92.488625 548.277405,92.629478 545.686462,93.028572 
M524.345154,71.532135 
	C524.345154,74.141174 524.345154,76.750206 524.345154,80.056244 
	C530.901245,79.721283 536.862854,79.686211 542.752747,79.018585 
	C546.518311,78.591759 549.118225,76.228996 549.227356,72.036476 
	C549.338074,67.782066 546.780212,65.376450 542.992065,64.938789 
	C536.973877,64.243500 530.881042,64.194237 524.346375,63.846497 
	C524.346375,66.662796 524.346375,68.628677 524.345154,71.532135 
M531.564697,37.066055 
	C529.310059,37.066055 527.055481,37.066055 524.747437,37.066055 
	C524.747437,42.165462 524.747437,46.684574 524.747437,51.119595 
	C530.406311,51.119595 535.690063,51.346508 540.943176,51.043171 
	C544.709900,50.825668 546.930115,48.452087 547.086975,44.538483 
	C547.245544,40.582294 545.071228,38.223431 541.404053,37.572479 
	C538.501038,37.057163 535.479370,37.209885 531.564697,37.066055 
z"/>
<path fill="#040404" opacity="1.000000" stroke="none" 
	d="
M750.795959,188.377838 
	C753.564270,188.258102 755.367310,188.211273 755.346191,191.602875 
	C755.208984,213.566269 755.275879,235.530930 755.275879,258.075043 
	C750.487305,258.075043 745.866455,258.277039 741.284058,257.946075 
	C739.990356,257.852631 738.521912,256.417084 737.621094,255.227905 
	C728.983398,243.825012 720.453003,232.340820 711.883423,220.886261 
	C710.843018,219.495483 709.752808,218.141922 707.848633,215.695847 
	C707.848633,230.529343 707.848633,244.047989 707.848633,257.823181 
	C702.077026,257.823181 696.826477,257.823181 691.284424,257.823181 
	C691.284424,234.958923 691.284424,212.049973 691.284424,188.396225 
	C695.904175,188.396225 700.670349,188.131012 705.373291,188.559448 
	C706.766113,188.686325 708.201294,190.600861 709.242676,191.979065 
	C718.862488,204.710098 728.400085,217.503204 738.638550,231.182632 
	C738.638550,216.488525 738.638550,202.822220 738.638550,188.377304 
	C742.849121,188.377304 746.587036,188.377304 750.795959,188.377838 
z"/>
<path fill="#030303" opacity="1.000000" stroke="none" 
	d="
M480.133240,165.866516 
	C472.071411,155.081131 464.214355,144.588623 455.475952,132.919113 
	C455.475952,147.972610 455.475952,161.650345 455.475952,175.568665 
	C449.789642,175.568665 444.694489,175.568665 439.232727,175.568665 
	C439.232727,152.503860 439.232727,129.479111 439.232727,106.000694 
	C443.647247,106.000694 448.114136,105.804634 452.544464,106.120888 
	C453.863129,106.215027 455.408600,107.496422 456.291321,108.658386 
	C465.350372,120.582748 474.292908,132.595596 483.272980,144.580002 
	C484.057831,145.627426 484.878448,146.648056 486.371948,148.567078 
	C486.371948,133.859451 486.371948,120.197441 486.371948,106.264420 
	C492.094788,106.264420 497.341187,106.264420 502.837097,106.264420 
	C502.837097,129.254425 502.837097,152.174316 502.837097,175.104889 
	C491.691864,177.899216 487.960571,176.419907 480.133240,165.866516 
z"/>
<path fill="#050505" opacity="1.000000" stroke="none" 
	d="
M755.069214,122.003082 
	C755.069214,116.532944 755.069214,111.561935 755.069214,105.465004 
	C769.264893,106.042587 783.238647,105.836540 797.001648,107.439697 
	C806.391663,108.533470 813.124634,114.946167 814.664612,124.719414 
	C816.260864,134.849411 814.739319,144.391937 805.409668,150.906876 
	C804.609314,151.465805 803.802246,152.015152 802.731445,152.752777 
	C807.477051,160.289490 812.134033,167.685318 817.256409,175.820374 
	C810.761047,175.820374 805.020996,175.977234 799.302612,175.694565 
	C798.087036,175.634476 796.556641,174.205322 795.849365,173.006805 
	C793.403015,168.860962 790.973816,164.659210 789.084961,160.244766 
	C787.595886,156.764633 785.485413,155.586395 781.848450,156.003418 
	C779.083618,156.320435 776.253418,156.066299 773.057861,156.066299 
	C773.057861,162.620422 773.057861,168.882172 773.057861,175.474670 
	C766.950989,175.474670 761.240784,175.474670 755.069214,175.474670 
	C755.069214,157.729477 755.069214,140.115845 755.069214,122.003082 
M772.918945,124.604584 
	C772.918945,130.359512 772.918945,136.114441 772.918945,141.919144 
	C778.505676,141.919144 783.495422,142.199265 788.440430,141.848282 
	C794.627808,141.409103 798.060303,137.498978 798.250427,131.437866 
	C798.446533,125.182487 795.491760,121.191696 789.250183,120.397148 
	C784.658447,119.812637 779.950256,120.207397 775.305054,119.957962 
	C772.090515,119.785339 773.087708,122.008232 772.918945,124.604584 
z"/>
<path fill="#050505" opacity="1.000000" stroke="none" 
	d="
M411.170959,258.878845 
	C392.817200,256.980072 381.229980,248.260605 376.870483,233.380463 
	C370.513489,211.682526 385.084320,190.263702 407.730103,188.185959 
	C423.266937,186.760468 436.731689,191.074280 445.280029,204.753662 
	C458.802063,226.392105 445.803558,253.992996 420.566071,258.153595 
	C417.624908,258.638458 414.608765,258.668396 411.170959,258.878845 
M394.914001,231.287811 
	C395.421051,232.329453 395.843079,233.423584 396.448578,234.404449 
	C401.528717,242.634247 411.120789,246.110687 419.757019,242.889389 
	C428.698029,239.554428 433.873596,229.255798 431.940613,218.645798 
	C430.307129,209.679565 422.419525,202.935593 413.423798,202.813751 
	C399.304962,202.622528 390.666870,215.401245 394.914001,231.287811 
z"/>
<path fill="#050505" opacity="1.000000" stroke="none" 
	d="
M569.123535,175.824753 
	C563.398621,176.834274 560.199951,174.671417 557.487000,170.040436 
	C553.222656,162.761322 548.152771,155.954086 543.489197,149.043671 
	C532.547241,154.960770 533.195068,165.019943 534.121277,175.428543 
	C528.005188,175.428543 522.297729,175.428543 516.298340,175.428543 
	C516.298340,152.539093 516.298340,129.624008 516.298340,106.351509 
	C521.839966,106.351509 527.560730,106.351509 533.849854,106.351509 
	C533.849854,115.782158 533.849854,125.294044 533.849854,136.079071 
	C542.403320,126.416344 550.146912,117.819016 557.686279,109.046219 
	C559.582703,106.839478 561.447388,105.772736 564.426086,105.924461 
	C569.531738,106.184525 574.660278,105.996307 580.988403,105.996307 
	C571.973511,116.075737 563.654114,125.377617 555.148987,134.887115 
	C564.236267,148.379303 573.197144,161.683746 582.720947,175.824020 
	C577.731262,175.824020 573.664368,175.824020 569.123535,175.824753 
z"/>
<path fill="#050505" opacity="1.000000" stroke="none" 
	d="
M429.033020,93.232697 
	C425.395416,93.232643 422.252075,93.232643 418.873291,93.232643 
	C418.873291,69.966240 418.873291,47.067413 418.873291,23.905708 
	C436.928345,23.905708 454.830414,23.905708 472.919128,23.905708 
	C472.919128,28.321989 472.919128,32.613457 472.919128,37.508377 
	C460.827515,37.508377 448.782166,37.508377 436.488312,37.508377 
	C436.488312,42.348049 436.488312,46.585484 436.488312,51.269043 
	C447.488525,51.269043 458.237793,51.269043 469.315369,51.269043 
	C469.315369,55.951359 469.315369,60.196171 469.315369,65.066879 
	C458.544922,65.066879 447.683289,65.066879 436.533508,65.066879 
	C436.533508,70.067017 436.533508,74.451836 436.533508,79.233856 
	C449.001099,79.233856 461.260223,79.233856 473.846558,79.233856 
	C473.846558,83.996849 473.846558,88.375465 473.846558,93.232750 
	C459.051208,93.232750 444.289276,93.232750 429.033020,93.232697 
z"/>
<path fill="#060606" opacity="1.000000" stroke="none" 
	d="
M593.557251,25.666777 
	C593.573425,38.605900 593.435730,51.100319 593.632080,63.589493 
	C593.776489,72.778854 598.419189,78.330956 605.955383,79.040634 
	C615.481812,79.937729 621.789001,74.599968 621.966064,65.007904 
	C622.184204,53.185963 622.038635,41.357307 622.049744,29.531555 
	C622.051453,27.723141 622.049988,25.914722 622.049988,23.875017 
	C627.987854,23.875017 633.599854,23.875017 639.838867,23.875017 
	C639.838867,30.906609 639.886353,37.822758 639.825989,44.737968 
	C639.760620,52.226624 640.092407,59.762917 639.368347,67.192413 
	C637.888855,82.373711 630.216797,90.804543 615.205750,93.367569 
	C602.871765,95.473511 590.926575,93.877930 582.567139,83.409515 
	C579.325684,79.350273 576.677795,73.684868 576.398682,68.606102 
	C575.587219,53.842373 576.110901,39.005264 576.110901,23.681074 
	C581.411438,23.681074 586.687256,23.636683 591.959778,23.748377 
	C592.498840,23.759796 593.018066,24.706909 593.557251,25.666777 
z"/>
<path fill="#050505" opacity="1.000000" stroke="none" 
	d="
M426.993469,107.222893 
	C427.010162,121.030792 427.213776,134.359406 426.926239,147.677399 
	C426.603516,162.624527 417.895294,172.797913 403.480927,175.770309 
	C387.338013,179.099152 372.222382,173.064880 366.272095,160.429688 
	C364.547882,156.768311 363.415497,152.491730 363.313049,148.464081 
	C362.958130,134.511932 363.176178,120.545189 363.176178,106.289871 
	C369.055237,106.289871 374.769958,106.289871 380.953583,106.289871 
	C380.953583,120.039635 380.794373,133.653030 381.005493,147.260681 
	C381.165649,157.584167 389.430237,163.599976 399.438446,161.074753 
	C405.230713,159.613266 408.990356,155.068939 409.154419,148.183380 
	C409.443970,136.031967 409.321289,123.870705 409.369080,111.713570 
	C409.375549,110.063896 409.369934,108.414177 409.369934,105.746124 
	C415.371368,106.084778 421.167511,106.411850 426.993469,107.222893 
z"/>
<path fill="#060606" opacity="1.000000" stroke="none" 
	d="
M687.433167,175.825790 
	C682.209656,175.826355 677.427795,175.826355 671.948669,175.826355 
	C682.142029,152.190857 692.101074,129.098709 702.063599,105.998390 
	C707.352417,105.998390 712.354919,105.812935 717.327393,106.117561 
	C718.720276,106.202888 720.740356,107.424507 721.263489,108.643730 
	C730.611572,130.431396 739.774719,152.298447 748.960938,174.155472 
	C749.076782,174.430954 748.975403,174.797729 748.975403,175.823074 
	C743.426575,175.823074 737.877563,175.935883 732.342651,175.707153 
	C731.464905,175.670898 730.336426,174.239395 729.865234,173.206085 
	C728.360413,169.906189 727.110596,166.490036 725.691833,162.942627 
	C716.259705,162.942627 706.945251,162.870117 697.635193,163.039566 
	C696.541016,163.059494 695.024231,164.171280 694.478760,165.191498 
	C693.159180,167.659424 692.491638,170.476349 691.168823,172.942032 
	C690.523071,174.145706 689.000488,174.878998 687.433167,175.825790 
M709.222656,127.015366 
	C706.416077,134.294128 703.609497,141.572906 700.731873,149.035965 
	C707.582581,149.035965 713.742249,149.035965 720.434326,149.035965 
	C717.114807,140.484482 713.994019,132.444870 710.660461,123.857216 
	C710.085083,125.176964 709.822205,125.779915 709.222656,127.015366 
z"/>
<path fill="#050505" opacity="1.000000" stroke="none" 
	d="
M662.784851,248.148041 
	C661.115051,246.914291 659.608459,245.376801 658.054443,245.327362 
	C650.241211,245.078812 642.413513,245.324112 634.595703,245.162689 
	C632.024597,245.109619 630.883728,245.975021 629.915466,248.368073 
	C625.963989,258.133270 625.861938,258.092041 615.332336,258.093536 
	C613.044373,258.093872 610.756409,258.093597 607.890137,258.093597 
	C613.681641,244.710114 619.271179,231.819412 624.838562,218.919159 
	C628.778564,209.789444 632.563538,200.588928 636.737671,191.568069 
	C637.414062,190.106354 639.721313,188.571457 641.336731,188.501404 
	C655.887024,187.870575 655.915466,187.954010 661.535583,201.190186 
	C668.988220,218.742279 676.402832,236.310501 683.815491,253.879517 
	C684.316895,255.068008 684.665222,256.321106 685.272034,258.089935 
	C679.428467,258.089935 673.996155,258.191406 668.574768,257.993317 
	C667.635376,257.958984 666.372925,256.842682 665.900574,255.903748 
	C664.713684,253.544296 663.893372,251.000412 662.784851,248.148041 
M644.191040,211.757294 
	C641.662476,218.346558 639.133911,224.935822 636.549683,231.670197 
	C643.392883,231.670197 649.617249,231.670197 656.387329,231.670197 
	C653.096497,223.144135 649.967407,215.037094 646.584167,206.271652 
	C645.701172,208.359222 645.125244,209.720764 644.191040,211.757294 
z"/>
<path fill="#060606" opacity="1.000000" stroke="none" 
	d="
M874.982300,109.944244 
	C876.890564,111.007027 878.449951,111.912376 880.430298,113.062126 
	C878.235046,117.623970 876.112610,122.034439 874.058777,126.302383 
	C868.472717,124.293472 863.290771,122.214012 857.965576,120.610252 
	C855.482666,119.862495 852.587646,119.428757 850.127563,119.973381 
	C847.921997,120.461662 844.673462,122.263351 844.410828,123.892731 
	C844.119324,125.700600 846.226013,128.998306 848.102417,129.846222 
	C853.811646,132.426102 859.917725,134.124344 865.860779,136.190399 
	C878.565125,140.606995 884.231140,152.117111 878.864258,163.384293 
	C874.883545,171.741440 867.114014,174.953064 858.571228,175.871368 
	C844.817749,177.349747 832.273804,173.858795 821.021545,165.066986 
	C823.201965,160.724655 825.341125,156.464417 827.399475,152.365051 
	C833.164124,155.067200 838.641235,158.080414 844.446960,160.188477 
	C847.922302,161.450409 851.996216,161.977661 855.639099,161.526733 
	C857.877441,161.249664 861.143066,158.746841 861.500610,156.795227 
	C861.849854,154.888718 859.595276,151.302948 857.600830,150.396027 
	C851.751465,147.736267 845.407715,146.190552 839.358704,143.937042 
	C829.420959,140.234772 825.022461,134.441238 825.200684,125.767159 
	C825.374512,117.307487 830.826782,110.204979 840.111145,107.246025 
	C851.882690,103.494415 863.411133,105.050423 874.982300,109.944244 
z"/>
<path fill="#040404" opacity="1.000000" stroke="none" 
	d="
M563.934448,258.074341 
	C558.652039,258.083618 553.863892,258.083618 548.688721,258.083618 
	C548.688721,236.390274 548.688721,215.128143 548.688721,193.865997 
	C548.688721,192.223450 548.688721,190.580902 548.688721,189.311752 
	C561.997070,189.311752 575.042786,188.179337 587.797363,189.621262 
	C601.316345,191.149612 607.770142,201.211136 606.927917,215.431900 
	C606.182190,228.023865 597.463379,237.063828 584.636108,238.006638 
	C578.712402,238.442032 572.730103,238.080887 566.277893,238.080887 
	C566.277893,244.183014 566.394714,249.307953 566.193481,254.420380 
	C566.144836,255.656525 565.045105,256.851288 563.934448,258.074341 
M572.558472,224.677444 
	C575.691406,224.466019 578.859497,224.478088 581.949280,223.992294 
	C586.948120,223.206314 589.852783,219.580887 590.130737,214.303116 
	C590.435120,208.523682 588.041504,204.046387 583.150024,203.221573 
	C577.727844,202.307266 572.135193,202.404068 566.532898,202.055359 
	C566.532898,210.063858 566.532898,217.111084 566.532898,224.677017 
	C568.426331,224.677017 570.037781,224.677017 572.558472,224.677444 
z"/>
<path fill="#050505" opacity="1.000000" stroke="none" 
	d="
M609.400635,127.594162 
	C620.830139,101.409561 655.242798,99.393417 672.048279,117.440529 
	C668.814880,121.284256 665.554565,125.160011 662.297913,129.031418 
	C649.273438,118.359833 638.454834,117.570541 630.377441,126.482628 
	C623.183533,134.419922 623.364441,147.404572 630.776733,155.142914 
	C638.776733,163.494797 650.178528,162.813614 662.050110,152.875153 
	C665.373901,156.375916 668.736572,159.917587 672.092285,163.451950 
	C653.577881,183.530716 621.692139,179.738098 610.352600,156.138733 
	C605.974976,147.028412 606.040894,137.484451 609.400635,127.594162 
z"/>
<path fill="#050505" opacity="1.000000" stroke="none" 
	d="
M366.219238,207.292023 
	C364.892365,208.817184 363.793884,210.059448 362.444641,211.585312 
	C356.708862,205.701599 350.064758,201.393677 341.707703,203.209076 
	C337.744598,204.069962 333.540649,206.382172 330.682251,209.263474 
	C323.575562,216.427017 323.959137,229.467636 330.758301,237.108261 
	C338.343262,245.631866 348.854919,245.157455 362.670776,235.490204 
	C365.900726,238.938797 369.162689,242.421539 372.405914,245.884323 
	C357.872528,261.850922 333.791962,263.249725 318.538177,249.252274 
	C304.201141,236.096069 303.672882,212.837784 317.389587,198.684998 
	C331.625519,183.996506 356.731110,184.397568 372.465637,199.800858 
	C370.472809,202.187836 368.460236,204.598495 366.219238,207.292023 
z"/>
<path fill="#060606" opacity="1.000000" stroke="none" 
	d="
M797.975098,213.971268 
	C802.152039,206.193878 806.049683,198.679153 810.337952,191.394394 
	C811.194702,189.938858 813.478882,188.672302 815.214539,188.512970 
	C819.630737,188.107544 824.109070,188.378098 829.402893,188.378098 
	C828.023743,191.096985 826.982849,193.250931 825.853943,195.357697 
	C819.978149,206.323120 814.250000,217.372986 808.114685,228.191681 
	C805.233826,233.271591 803.598389,238.337875 804.091614,244.228775 
	C804.462280,248.655487 804.164856,253.138138 804.164856,257.840393 
	C798.266846,257.840393 792.699463,257.840393 786.865967,257.840393 
	C786.795410,256.980621 786.582581,256.165741 786.686890,255.393646 
	C788.507629,241.916885 784.540527,230.113937 777.363098,218.758087 
	C771.368286,209.273254 766.559387,199.038925 760.817566,188.379715 
	C766.598511,188.379715 771.677612,188.146271 776.708069,188.537949 
	C778.024902,188.640472 779.560791,190.472061 780.365173,191.872055 
	C785.395020,200.626602 790.245972,209.483932 795.329956,218.619537 
	C796.337952,216.886078 797.085510,215.600433 797.975098,213.971268 
z"/>
<path fill="#050505" opacity="1.000000" stroke="none" 
	d="
M352.621796,107.430206 
	C352.571503,123.548653 352.964661,139.220215 352.265625,154.842911 
	C351.644012,168.736496 343.694275,175.791168 329.832855,176.398346 
	C319.829102,176.836548 311.683167,173.206924 304.726501,165.068954 
	C307.200867,161.451462 309.720795,157.767395 312.233398,154.094070 
	C315.852112,156.264236 319.136841,158.837387 322.855133,160.331619 
	C329.495667,163.000198 334.327820,160.331985 334.591919,153.610641 
	C335.021637,142.676163 334.707855,131.712479 334.707855,120.423409 
	C326.816742,120.423409 319.217194,120.423409 311.261810,120.423409 
	C311.261810,115.548149 311.261810,111.002380 311.261810,106.067177 
	C324.638153,106.067177 338.068420,106.060135 351.498535,106.104675 
	C351.863342,106.105888 352.226288,106.663757 352.621796,107.430206 
z"/>
<path fill="#040404" opacity="1.000000" stroke="none" 
	d="
M694.528198,57.551224 
	C692.009155,63.439880 688.807434,68.844223 687.641357,74.656929 
	C686.487854,80.407066 687.389221,86.569443 687.389221,92.896484 
	C681.671692,92.896484 676.097961,92.896484 669.871826,92.896484 
	C669.871826,87.319237 670.073792,81.552322 669.783020,75.810349 
	C669.646362,73.111954 669.061829,70.199753 667.823181,67.832932 
	C660.977295,54.751320 653.863892,41.809734 646.852478,28.814587 
	C646.087219,27.396183 645.387939,25.942171 644.250427,23.701740 
	C650.001465,23.701740 655.067200,23.508114 660.097595,23.843578 
	C661.292725,23.923277 662.718933,25.574940 663.444885,26.843468 
	C668.466736,35.618820 673.331360,44.484131 678.556213,53.877228 
	C683.490356,44.807224 688.337891,36.331360 692.716797,27.619967 
	C694.326294,24.417927 696.248840,23.345669 699.658142,23.580698 
	C703.618774,23.853735 707.612610,23.644350 712.621704,23.644350 
	C706.438599,35.261253 700.587952,46.253525 694.528198,57.551224 
z"/>
<path fill="#F1F1F1" opacity="1.000000" stroke="none" 
	d="
M524.345764,71.063347 
	C524.346375,68.628677 524.346375,66.662796 524.346375,63.846497 
	C530.881042,64.194237 536.973877,64.243500 542.992065,64.938789 
	C546.780212,65.376450 549.338074,67.782066 549.227356,72.036476 
	C549.118225,76.228996 546.518311,78.591759 542.752747,79.018585 
	C536.862854,79.686211 530.901245,79.721283 524.345154,80.056244 
	C524.345154,76.750206 524.345154,74.141174 524.345764,71.063347 
z"/>
<path fill="#F5F5F5" opacity="1.000000" stroke="none" 
	d="
M532.037598,37.066010 
	C535.479370,37.209885 538.501038,37.057163 541.404053,37.572479 
	C545.071228,38.223431 547.245544,40.582294 547.086975,44.538483 
	C546.930115,48.452087 544.709900,50.825668 540.943176,51.043171 
	C535.690063,51.346508 530.406311,51.119595 524.747437,51.119595 
	C524.747437,46.684574 524.747437,42.165462 524.747437,37.066055 
	C527.055481,37.066055 529.310059,37.066055 532.037598,37.066010 
z"/>
<path fill="#FCFCFC" opacity="1.000000" stroke="none" 
	d="
M772.919128,124.117538 
	C773.087708,122.008232 772.090515,119.785339 775.305054,119.957962 
	C779.950256,120.207397 784.658447,119.812637 789.250183,120.397148 
	C795.491760,121.191696 798.446533,125.182487 798.250427,131.437866 
	C798.060303,137.498978 794.627808,141.409103 788.440430,141.848282 
	C783.495422,142.199265 778.505676,141.919144 772.918945,141.919144 
	C772.918945,136.114441 772.918945,130.359512 772.919128,124.117538 
z"/>
<path fill="#FBFBFB" opacity="1.000000" stroke="none" 
	d="
M394.801636,230.908203 
	C390.666870,215.401245 399.304962,202.622528 413.423798,202.813751 
	C422.419525,202.935593 430.307129,209.679565 431.940613,218.645798 
	C433.873596,229.255798 428.698029,239.554428 419.757019,242.889389 
	C411.120789,246.110687 401.528717,242.634247 396.448578,234.404449 
	C395.843079,233.423584 395.421051,232.329453 394.801636,230.908203 
z"/>
<path fill="#F7F7F7" opacity="1.000000" stroke="none" 
	d="
M709.390991,126.699112 
	C709.822205,125.779915 710.085083,125.176964 710.660461,123.857216 
	C713.994019,132.444870 717.114807,140.484482 720.434326,149.035965 
	C713.742249,149.035965 707.582581,149.035965 700.731873,149.035965 
	C703.609497,141.572906 706.416077,134.294128 709.390991,126.699112 
z"/>
<path fill="#F6F6F6" opacity="1.000000" stroke="none" 
	d="
M644.370178,211.419800 
	C645.125244,209.720764 645.701172,208.359222 646.584167,206.271652 
	C649.967407,215.037094 653.096497,223.144135 656.387329,231.670197 
	C649.617249,231.670197 643.392883,231.670197 636.549683,231.670197 
	C639.133911,224.935822 641.662476,218.346558 644.370178,211.419800 
z"/>
<path fill="#F4F4F4" opacity="1.000000" stroke="none" 
	d="
M572.103882,224.677231 
	C570.037781,224.677017 568.426331,224.677017 566.532898,224.677017 
	C566.532898,217.111084 566.532898,210.063858 566.532898,202.055359 
	C572.135193,202.404068 577.727844,202.307266 583.150024,203.221573 
	C588.041504,204.046387 590.435120,208.523682 590.130737,214.303116 
	C589.852783,219.580887 586.948120,223.206314 581.949280,223.992294 
	C578.859497,224.478088 575.691406,224.466019 572.103882,224.677231 
z"/>
</svg>